<svg xmlns="http://www.w3.org/2000/svg" viewBox="0 0 48 48">
  <path fill="#EA4335" d="M24 9.5c3.54 0 6.71 1.22 9.21 3.6l6.63-6.63C34.71 3.69 29.75 2 24 2 15.58 2 8.35 6.94 4.54 14.15l7.98 6.19C14.73 14.92 19.04 9.5 24 9.5z"/>
  <path fill="#4285F4" d="M46.7 24.5c0-1.55-.18-3.04-.45-4.48H24v8.58h12.59c-.77 4.09-3.23 7.4-6.72 9.61v6.69h8.65c5.07-4.68 7.9-11.5 7.9-19.8z"/>
  <path fill="#FBBC04" d="M11.98 29.83c-.76-2.09-.94-4.38-.94-6.83s.18-4.74.94-6.83L4.01 10.98C-.26 19.34-.26 28.66 4.01 37.02l7.97-7.19z"/>
  <path fill="#34A853" d="M24 45.47c5.92 0 10.95-1.95 14.59-5.36l-8.65-6.69c-2.48 1.63-5.63 2.72-8.94 2.72-4.96 0-9.28-3.41-10.99-8.12l-7.97 7.19C8.35 41.06 15.58 45.47 24 45.47z"/>
</svg> 