<?xml version="1.0" encoding="UTF-8"?>
<svg id="Layer_2" data-name="Layer 2" xmlns="http://www.w3.org/2000/svg" xmlns:xlink="http://www.w3.org/1999/xlink" viewBox="0 0 299.5 238.72">
  <defs>
    <style>
      .cls-1 {
        fill: url(#linear-gradient-2);
      }

      .cls-2 {
        fill: #fff;
      }

      .cls-3 {
        fill: url(#linear-gradient-4);
      }

      .cls-4 {
        fill: url(#linear-gradient-3);
      }

      .cls-4, .cls-5, .cls-6, .cls-7 {
        fill-rule: evenodd;
      }

      .cls-8 {
        clip-path: url(#clippath-1);
      }

      .cls-5 {
        fill: url(#linear-gradient-5);
      }

      .cls-9 {
        clip-rule: evenodd;
        fill: none;
      }

      .cls-10 {
        fill: url(#linear-gradient-6);
      }

      .cls-6 {
        fill: red;
        opacity: .15;
      }

      .cls-7 {
        fill: #01052d;
        opacity: .2;
      }

      .cls-11 {
        fill: url(#linear-gradient);
      }

      .cls-12 {
        clip-path: url(#clippath);
      }
    </style>
    <linearGradient id="linear-gradient" x1="214.3" y1="221.74" x2="293.17" y2="221.74" gradientUnits="userSpaceOnUse">
      <stop offset="0" stop-color="#114fee"/>
      <stop offset="1" stop-color="#3edc81"/>
    </linearGradient>
    <linearGradient id="linear-gradient-2" x1="276.04" y1="114.24" x2="299.5" y2="114.24" xlink:href="#linear-gradient"/>
    <linearGradient id="linear-gradient-3" x1="410.9" y1="1441.62" x2="460.95" y2="1268.21" gradientTransform="translate(-810.36 -968.73) rotate(-22)" xlink:href="#linear-gradient"/>
    <clipPath id="clippath">
      <path class="cls-9" d="M111.56,50.51c14.85-28.47,61.07-9.53,23.08,12.14,8.34-4.07,27.93-18.89,9.91-27.15-.55-.2-1.1-.37-1.66-.53-1.15-.33-2.3-.62-3.44-.87-.38-.08-.76-.16-1.14-.23-17.52-3-32.28,11.46-34.36,31.98-1.95,19.21,7.28,55.01,12.1,76.83,5.05,22.89,7.83,41.44-6.84,56.21,3.47-3.05,6.57-7,9.06-12,10.01-20.08-.28-51.34-6.81-80.95-2.39-10.84-4.27-21.46-4.48-31.24-.15-7.13.6-13.8,2.7-19.79.55-1.57,1.19-3.03,1.89-4.39"/>
    </clipPath>
    <linearGradient id="linear-gradient-4" x1="474.09" y1="1413.89" x2="474.09" y2="1276.21" gradientTransform="translate(-339.71 -1244.57)" gradientUnits="userSpaceOnUse">
      <stop offset="0" stop-color="#0131b9"/>
      <stop offset="1" stop-color="#009c41"/>
    </linearGradient>
    <linearGradient id="linear-gradient-5" x1="292.41" y1="1409.43" x2="523.92" y2="1284.74" gradientTransform="translate(-810.36 -968.73) rotate(-22)" gradientUnits="userSpaceOnUse">
      <stop offset="0" stop-color="red"/>
      <stop offset="1" stop-color="#ff0"/>
    </linearGradient>
    <clipPath id="clippath-1">
      <path class="cls-9" d="M162.29,55.79c3.79,22.07-24.09,35.36-42.01,42.72-19.8,8.13-48.75,17.36-65.74,27.37-14.24,8.38-27.24,22.14-16.08,46.06,1.03,2.17,1.68,3.71,3.39,6.26,3.68,5.5,7.2,9.4,11.1,13.01,2.74,2.55,5.71,4.94,8.89,7.14,8.58,4.89,19.85,6.48,25.78-7.01-1.96,4.3-5.89,7.44-10.47,8.34-6.15,1.2-11.41-2.1-16.09-5.69-10.19-7.82-19.93-21.17-22.61-33.76-3.39-15.92,6.54-25.29,19.07-32.08,28.59-15.5,79.63-26.51,98.47-48.61,6.43-7.54,8.01-16.11,6.31-23.77"/>
    </clipPath>
    <linearGradient id="linear-gradient-6" x1="376.54" y1="1403.85" x2="545.03" y2="1306.57" gradientTransform="translate(-329.6 -1232.54)" xlink:href="#linear-gradient-5"/>
  </defs>
  <g id="Layer_1-2" data-name="Layer 1">
    <g>
      <g>
        <g>
          <path class="cls-2" d="M22.02,37.27c0-7.77,6.05-11.51,14.11-11.51s13.52,3.88,13.95,11.51h19.72c-.86-20.58-17.41-30.51-34.11-30.51C18.14,6.76,1.44,17.41,1.44,37.27c0,37.99,49.51,21.01,49.51,41.73,0,9.07-7.2,13.24-14.82,13.24s-15.98-4.6-16.55-13.24H0c.87,21.3,16.41,31.38,35.69,31.38,2.79,0,5.52-.23,8.15-.68,11.57-1.97,21.17-8.26,25.33-18.61h0c1.43-3.56,2.21-7.59,2.21-12.09,0-38.28-49.36-20.72-49.36-41.73Z"/>
          <path class="cls-2" d="M207.53,31.37c-8.92,0-17.7,3.74-23.31,10.79V0h-19.14v108.65h19.14v-9.07c5.61,7.2,14.39,10.8,23.46,10.8,16.69,0,34.25-12.67,34.25-39.43s-17.56-39.58-34.4-39.58ZM203.21,95.12c-9.49,0-18.99-8.06-18.99-24.17s9.5-24.33,18.99-24.33,18.86,8.06,18.86,24.33-9.5,24.17-18.86,24.17Z"/>
          <path class="cls-2" d="M175.87,122.01c-8.78,0-16.69,3.89-21.87,11.51v-10.36h-19.14v75.56h19.14v-40.16c0-13.67,7.34-20.43,16.26-20.43s16.26,6.76,16.26,20.43v40.16h19.14v-39.58c0-25.04-14.25-37.13-29.79-37.13Z"/>
          <path class="cls-2" d="M253.73,121.43c-22.3,0-39.43,17.71-39.43,39.58s17.13,39.43,39.43,39.43,39.44-17.7,39.44-39.43-16.99-39.58-39.44-39.58ZM253.73,182.17c-11.22,0-19.57-9.5-19.57-21.16s8.35-21.3,19.57-21.3,19.72,9.5,19.72,21.3-8.49,21.16-19.72,21.16Z"/>
          <path class="cls-11" d="M253.73,204.76c17.7,0,35.4,11.37,39.43,33.96h-18.85c-3.31-10.79-11.95-16.12-20.44-16.12s-17.27,5.32-20.72,16.12h-18.85c4.17-22.6,21.73-33.96,39.43-33.96Z"/>
          <polygon class="cls-1" points="278.2 126.33 276.04 125.18 281.51 102.15 299.5 114.96 278.2 126.33"/>
        </g>
        <g>
          <path class="cls-4" d="M78.44,118.69c5.15,24.97,13.52,49.88,10.29,69.03-.17,1.04-.46,2.03-.83,2.98-.09.22-.18.44-.28.66,0,0,0,0,0,0-5.93,13.48-17.2,11.89-25.78,7,2.93,2.02,6.04,3.88,9.32,5.55,13.37,6.79,36.15,4.9,47.09-17.04,10.01-20.08-.28-51.34-6.81-80.95-2.39-10.84-4.27-21.46-4.48-31.24-.15-7.13.6-13.8,2.7-19.79.55-1.57,1.19-3.03,1.89-4.39,4.83-10.43,14.67-19.01,27.88-16.42-31.69-6.96-59.37,15.22-63.71,41.26-.7,4.21-1.01,8.54-1,12.93.01,9.89,1.59,20.15,3.71,30.4h0Z"/>
          <g class="cls-12">
            <rect class="cls-3" x="75.39" y="25.01" width="117.98" height="157.5" transform="translate(-29.09 57.91) rotate(-22)"/>
          </g>
          <path class="cls-7" d="M78.44,118.69c1.9,9.22,4.24,18.44,6.28,27.35-.88-16.6,9.94-29.25,27.96-34.69-.42-1.81-.83-3.63-1.23-5.43-1.35-6.11-2.53-12.15-3.35-18.01-10.8,1.99-23.56,4.04-33.07,8.05.56,7.48,1.83,15.11,3.41,22.73h0Z"/>
          <path class="cls-5" d="M74.73,88.29c-9.31,4.49-17.9,9.44-24.37,14.96-24.13,20.57-24.36,51.23-8.51,74.96-18.85-30.36,5.7-45.26,17.23-50.86,5.76-3,12.35-5.85,19.36-8.66,10.53-4.22,22-8.34,33.01-12.77,18.31-7.36,35.32-15.55,44.54-26.36,14.16-16.61,4.82-38.22-11.44-44.06,18.02,8.26-1.56,23.09-9.91,27.15-.32.18-.65.37-.98.55-6.4,3.53-16,7.29-26.68,11.49-10.38,4.07-21.77,8.55-32.24,13.6h0Z"/>
          <path class="cls-6" d="M78.44,118.69c10.53-4.22,22-8.34,33.01-12.77-2.39-10.84-4.27-21.46-4.48-31.24-10.38,4.07-21.77,8.55-32.24,13.6.01,9.89,1.59,20.15,3.71,30.4h0Z"/>
          <g class="cls-8">
            <rect class="cls-10" x="28.63" y="81.78" width="159.72" height="107.99" transform="translate(-42.97 50.54) rotate(-22)"/>
          </g>
        </g>
      </g>
      <path class="cls-2" d="M49.75,127.61v9.82c-.54,6.32-3.5,9.42-9.29,9.42h-.13c-9.15,0-17.09,7-18.3,16.01l-.67,6.06v29.47h-9.42c-5.79-.4-8.88-3.09-9.29-8.21v-67.56h9.69c4.98,0,9.02,4.31,9.02,9.15v.81c4.04-2.42,8.34-3.9,12.92-4.58,2.15-.4,3.77-.54,5.92-.4h9.56Z"/>
    </g>
  </g>
</svg>