<?xml version="1.0" encoding="UTF-8"?>
<svg id="Layer_2" data-name="Layer 2" xmlns="http://www.w3.org/2000/svg" xmlns:xlink="http://www.w3.org/1999/xlink" viewBox="0 0 302.73 467.06">
  <defs>
    <style>
      .cls-1 {
        fill: url(#linear-gradient-2);
      }

      .cls-2 {
        fill: url(#linear-gradient-4);
      }

      .cls-3 {
        fill: url(#linear-gradient-3);
      }

      .cls-3, .cls-4, .cls-5, .cls-6 {
        fill-rule: evenodd;
      }

      .cls-7 {
        clip-path: url(#clippath-1);
      }

      .cls-8 {
        clip-rule: evenodd;
        fill: none;
      }

      .cls-4 {
        fill: red;
        opacity: .15;
      }

      .cls-5 {
        fill: #01052d;
        opacity: .2;
      }

      .cls-6 {
        fill: url(#linear-gradient);
      }

      .cls-9 {
        clip-path: url(#clippath);
      }
    </style>
    <linearGradient id="linear-gradient" x1="-225.6" y1="2357.64" x2="-96.05" y2="1908.83" gradientTransform="translate(-819.63 -1648.32) rotate(-31.96)" gradientUnits="userSpaceOnUse">
      <stop offset="0" stop-color="#114fee"/>
      <stop offset="1" stop-color="#3edc81"/>
    </linearGradient>
    <clipPath id="clippath">
      <path class="cls-8" d="M165.83,54.46c25.12-79.22,151.42-51.63,64.26,20.62,19.45-14.1,62.74-60.65,13.1-73.65-1.48-.25-2.97-.46-4.47-.62-3.09-.32-6.14-.54-9.16-.67-1.01-.04-2.01-.06-3.01-.09-46.01.18-77.16,43.64-73.29,96.89,3.62,49.84,43.17,136.99,65.21,190.43,23.12,56.09,38.49,102.15,7.7,146.34,7.47-9.33,13.62-20.79,17.72-34.63,16.54-55.68-23.67-130.74-53.56-203.32-10.94-26.57-20.5-52.8-25.39-77.62-3.57-18.1-4.65-35.46-1.97-51.65.71-4.26,1.67-8.27,2.86-12.03"/>
    </clipPath>
    <linearGradient id="linear-gradient-2" x1="-62.04" y1="2285.87" x2="-62.04" y2="1929.52" gradientTransform="translate(309.86 -1936.22)" gradientUnits="userSpaceOnUse">
      <stop offset="0" stop-color="#0131b9"/>
      <stop offset="1" stop-color="#009c41"/>
    </linearGradient>
    <linearGradient id="linear-gradient-3" x1="-532.26" y1="2274.32" x2="66.92" y2="1951.6" gradientTransform="translate(-819.63 -1648.32) rotate(-31.96)" gradientUnits="userSpaceOnUse">
      <stop offset="0" stop-color="red"/>
      <stop offset="1" stop-color="#ff0"/>
    </linearGradient>
    <clipPath id="clippath-1">
      <path class="cls-8" d="M297.51,45.22c19.53,54.56-45.59,100.92-87.99,127.71-46.83,29.59-116.5,66.07-155.34,99.18-32.55,27.74-59.53,68.62-20.38,124.62,3.59,5.08,5.94,8.7,11.43,14.44,11.83,12.38,22.56,20.74,34.12,28.2,8.13,5.28,16.77,10.05,25.86,14.23,24.06,8.62,53.5,7.64,62.59-29.39-3.06,11.83-11.69,21.61-22.97,25.94-15.15,5.82-30.03-.24-43.55-7.3-29.48-15.39-60.28-45.05-72.75-75.95-15.76-39.07,5.36-67.38,34.26-90.3,65.95-52.3,191.13-103.2,229.27-167.96,13.01-22.09,13.22-44.65,5.45-63.41"/>
    </clipPath>
    <linearGradient id="linear-gradient-4" x1="-314.53" y1="2259.87" x2="121.56" y2="2008.12" gradientTransform="translate(351.36 -1894.73)" xlink:href="#linear-gradient-3"/>
  </defs>
  <g id="Layer_1-2" data-name="Layer 1">
    <g>
      <path class="cls-6" d="M111.89,243.07c24.31,61.36,56.77,121.1,57.12,171.37.02,2.72-.25,5.39-.79,7.97-.12.61-.26,1.2-.42,1.79,0,0,0,0,0,0-9.09,37.03-38.54,38.01-62.59,29.39,8.38,3.85,17.14,7.19,26.25,9.98,37.13,11.34,94.36-3.69,112.42-64.5,16.54-55.68-23.67-130.74-53.56-203.32-10.94-26.57-20.5-52.8-25.39-77.62-3.57-18.1-4.65-35.46-1.97-51.65.71-4.26,1.67-8.27,2.86-12.03C173.47,25.72,194.71-.55,229.56.13,145.67-3.43,85.03,65.5,85.6,133.81c.09,11.05,1.25,22.21,3.23,33.42,4.46,25.19,13.07,50.66,23.06,75.85h0Z"/>
      <g class="cls-9">
        <rect class="cls-1" x="95.15" y="-23.83" width="305.34" height="407.62" transform="translate(-57.7 158.45) rotate(-31.96)"/>
      </g>
      <path class="cls-5" d="M111.89,243.07c8.98,22.66,19.06,45.1,28.24,66.92-9.67-41.92,12.25-79.02,55.76-100.94-1.88-4.44-3.74-8.87-5.56-13.29-6.17-14.97-11.9-29.84-16.6-44.42-26.63,9.92-58.25,20.84-80.69,35.31,4.76,18.81,11.43,37.7,18.86,56.43h0Z"/>
      <path class="cls-3" d="M88.84,167.23c-21.73,15.62-41.4,32.07-55.44,49.04-52.32,63.24-39.19,141.5,11.85,194.9-61.63-68.96-5.71-117.94,21.16-137.37,13.33-10.22,28.87-20.43,45.48-30.73,24.95-15.46,52.36-31.11,78.44-47.32,43.38-26.96,83.08-55.45,101.74-87.13,28.67-48.68-4.8-99.6-48.88-107.21,49.63,13,6.35,59.55-13.1,73.65-.74.61-1.49,1.22-2.26,1.84-14.74,11.85-37.54,25.75-62.89,41.22-24.63,15.03-51.68,31.54-76.1,49.09h0Z"/>
      <path class="cls-4" d="M111.89,243.07c24.95-15.46,52.36-31.11,78.44-47.32-10.94-26.57-20.5-52.8-25.39-77.62-24.63,15.03-51.68,31.54-76.1,49.09,4.46,25.19,13.07,50.66,23.06,75.85h0Z"/>
      <g class="cls-7">
        <rect class="cls-2" x="-10.56" y="133.43" width="413.37" height="279.5" transform="translate(-114.87 145.21) rotate(-31.96)"/>
      </g>
    </g>
  </g>
</svg>